<svg xmlns="http://www.w3.org/2000/svg" width="1920" height="1080" viewBox="0 0 1920 1080"><rect width="1920" height="1080" fill="#12110d"/><rect x="120" y="131.1" width="1" height="21.06" fill="#79c79a"/><text x="138" y="150" font-family="'Geist Mono', ui-monospace, Menlo, monospace" font-size="18" font-weight="400" letter-spacing="1.08" fill="#a9a395" text-anchor="start">V2 · OPEN SOURCE</text><text x="120" y="279.2" font-family="Geist, 'Geist Fallback', Arial, sans-serif" font-size="104" font-weight="400" letter-spacing="-5.2" fill="#f2f0e9" text-anchor="start">Icons for the things</text><text x="120" y="381.12" font-family="Geist, 'Geist Fallback', Arial, sans-serif" font-size="104" font-weight="400" letter-spacing="-5.2" fill="#f2f0e9" text-anchor="start">African products</text><text x="120" y="483.04" font-family="Geist, 'Geist Fallback', Arial, sans-serif" font-size="104" font-weight="400" letter-spacing="-5.2" fill="#f2f0e9" text-anchor="start">actually need.</text><rect x="1180" y="196" width="612.5" height="250" fill="#12110d" stroke="#2a2822" stroke-width="1"/><rect x="1180" y="196" width="250" height="250" fill="#f39762"/><g stroke="rgba(18,17,13,0.1)" stroke-width="1"><line x1="1190.42" y1="196" x2="1190.42" y2="446"/><line x1="1180" y1="206.42" x2="1430" y2="206.42"/><line x1="1200.83" y1="196" x2="1200.83" y2="446"/><line x1="1180" y1="216.83" x2="1430" y2="216.83"/><line x1="1211.25" y1="196" x2="1211.25" y2="446"/><line x1="1180" y1="227.25" x2="1430" y2="227.25"/><line x1="1221.67" y1="196" x2="1221.67" y2="446"/><line x1="1180" y1="237.67" x2="1430" y2="237.67"/><line x1="1232.08" y1="196" x2="1232.08" y2="446"/><line x1="1180" y1="248.08" x2="1430" y2="248.08"/><line x1="1242.5" y1="196" x2="1242.5" y2="446"/><line x1="1180" y1="258.5" x2="1430" y2="258.5"/><line x1="1252.92" y1="196" x2="1252.92" y2="446"/><line x1="1180" y1="268.92" x2="1430" y2="268.92"/><line x1="1263.33" y1="196" x2="1263.33" y2="446"/><line x1="1180" y1="279.33" x2="1430" y2="279.33"/><line x1="1273.75" y1="196" x2="1273.75" y2="446"/><line x1="1180" y1="289.75" x2="1430" y2="289.75"/><line x1="1284.17" y1="196" x2="1284.17" y2="446"/><line x1="1180" y1="300.17" x2="1430" y2="300.17"/><line x1="1294.58" y1="196" x2="1294.58" y2="446"/><line x1="1180" y1="310.58" x2="1430" y2="310.58"/><line x1="1305" y1="196" x2="1305" y2="446"/><line x1="1180" y1="321" x2="1430" y2="321"/><line x1="1315.42" y1="196" x2="1315.42" y2="446"/><line x1="1180" y1="331.42" x2="1430" y2="331.42"/><line x1="1325.83" y1="196" x2="1325.83" y2="446"/><line x1="1180" y1="341.83" x2="1430" y2="341.83"/><line x1="1336.25" y1="196" x2="1336.25" y2="446"/><line x1="1180" y1="352.25" x2="1430" y2="352.25"/><line x1="1346.67" y1="196" x2="1346.67" y2="446"/><line x1="1180" y1="362.67" x2="1430" y2="362.67"/><line x1="1357.08" y1="196" x2="1357.08" y2="446"/><line x1="1180" y1="373.08" x2="1430" y2="373.08"/><line x1="1367.5" y1="196" x2="1367.5" y2="446"/><line x1="1180" y1="383.5" x2="1430" y2="383.5"/><line x1="1377.92" y1="196" x2="1377.92" y2="446"/><line x1="1180" y1="393.92" x2="1430" y2="393.92"/><line x1="1388.33" y1="196" x2="1388.33" y2="446"/><line x1="1180" y1="404.33" x2="1430" y2="404.33"/><line x1="1398.75" y1="196" x2="1398.75" y2="446"/><line x1="1180" y1="414.75" x2="1430" y2="414.75"/><line x1="1409.17" y1="196" x2="1409.17" y2="446"/><line x1="1180" y1="425.17" x2="1430" y2="425.17"/><line x1="1419.58" y1="196" x2="1419.58" y2="446"/><line x1="1180" y1="435.58" x2="1430" y2="435.58"/></g><rect x="1200.83" y="216.83" width="208.33" height="208.33" fill="none" stroke="rgba(18,17,13,0.35)" stroke-width="1" stroke-dasharray="4 4"/><g transform="translate(1230 246) scale(6.25)" fill="none" stroke="#12110d" stroke-width="1.5" stroke-linecap="round" stroke-linejoin="round"><path d="M5.5 15.5a6.5 6.5 0 0 1 13 0"/><path d="M3.25 15.5h17.5"/><path d="M6 15.5a6.75 2.4 0 0 0 12 0"/><path d="m9.3 12.3 1 .4m3.4-1.7 1 .4m-3.4-1.8 1 .4"/></g><text x="1475.5" y="244.75" font-family="'Geist Mono', ui-monospace, Menlo, monospace" font-size="16.25" font-weight="400" letter-spacing="0.98" fill="#8c8679" text-anchor="start">SPECIMEN</text><text x="1760" y="244.75" font-family="'Geist Mono', ui-monospace, Menlo, monospace" font-size="16.25" font-weight="400" letter-spacing="0.98" fill="#8c8679" text-anchor="end">04 / 30</text><text x="1475.5" y="326" font-family="'Geist Mono', ui-monospace, Menlo, monospace" font-size="25" font-weight="400" letter-spacing="0" fill="#f2f0e9" text-anchor="start">jollof-rice</text><text x="1475.5" y="361" font-family="Geist, 'Geist Fallback', Arial, sans-serif" font-size="19.5" font-weight="400" letter-spacing="0" fill="#a9a395" text-anchor="start">Food &amp; Drink</text><text x="1475.5" y="393.5" font-family="'Geist Mono', ui-monospace, Menlo, monospace" font-size="16.25" font-weight="400" letter-spacing="0" fill="#8c8679" text-anchor="start">24px · 1.5 stroke</text><rect x="0" y="640" width="1920" height="440" fill="#12110d"/><rect x="0" y="974.4" width="64" height="105.6" fill="#f39762"/><g transform="translate(17 992.4) scale(1.25)" fill="none" stroke="#12110d" stroke-width="1.5" stroke-linecap="round" stroke-linejoin="round"><path d="M3.5 11.75a8.5 7.5 0 0 0 17 0Z"/><circle cx="7.9" cy="9.6" r="1.75"/><circle cx="12" cy="9.9" r="1.75"/><circle cx="16.1" cy="9.6" r="1.75"/><circle cx="9.9" cy="6.5" r="1.75"/><circle cx="14.1" cy="6.5" r="1.75"/></g><rect x="64" y="943.6" width="64" height="136.4" fill="#f39762"/><g transform="translate(81 961.6) scale(1.25)" fill="none" stroke="#12110d" stroke-width="1.5" stroke-linecap="round" stroke-linejoin="round"><path d="M12 8c-3.9 0-6.9 2.5-6.9 5.9 0 3.75 3.1 6.35 6.9 6.35s6.9-2.6 6.9-6.35c0-3.4-3-5.9-6.9-5.9"/><path d="M8.6 12.9c-.15 2.75 1.05 4.9 3.4 6.35m3.4-6.35c.15 2.75-1.05 4.9-3.4 6.35"/><path d="M12 8V6.4c0-1.6 1.2-2.9 2.8-2.9h1.6"/></g><rect x="128" y="970" width="64" height="110" fill="#f39762"/><g transform="translate(145 988) scale(1.25)" fill="none" stroke="#12110d" stroke-width="1.5" stroke-linecap="round" stroke-linejoin="round"><path d="M12 3.25c3.6 2.3 5.6 6.1 5.6 9.6 0 4.1-2.5 7.2-5.6 7.7-3.1-.5-5.6-3.6-5.6-7.7 0-3.5 2-7.3 5.6-9.6"/><path d="M12 4.5v15"/></g><rect x="192" y="930.4" width="64" height="149.6" fill="#f39762"/><g transform="translate(209 948.4) scale(1.25)" fill="none" stroke="#12110d" stroke-width="1.5" stroke-linecap="round" stroke-linejoin="round"><path d="M5.5 15.5a6.5 6.5 0 0 1 13 0"/><path d="M3.25 15.5h17.5"/><path d="M6 15.5a6.75 2.4 0 0 0 12 0"/><path d="m9.3 12.3 1 .4m3.4-1.7 1 .4m-3.4-1.8 1 .4"/></g><rect x="256" y="943.6" width="64" height="136.4" fill="#f39762"/><g transform="translate(273 961.6) scale(1.25)" fill="none" stroke="#12110d" stroke-width="1.5" stroke-linecap="round" stroke-linejoin="round"><path d="M3.75 10.75h16.5a8.25 7.25 0 0 1-5.5 6.85v1.65h-5.5V17.6a8.25 7.25 0 0 1-5.5-6.85"/><path d="M9.75 4c-.6 1.1.6 1.7 0 2.8m4.5-2.8c-.6 1.1.6 1.7 0 2.8"/></g><rect x="320" y="926" width="64" height="154" fill="#f39762"/><g transform="translate(337 944) scale(1.25)" fill="none" stroke="#12110d" stroke-width="1.5" stroke-linecap="round" stroke-linejoin="round"><path d="M12 2.5v2m0 14v3"/><rect width="6.5" height="3.6" x="8.75" y="4.5" rx="1.3"/><rect width="6.5" height="3.6" x="8.75" y="9.2" rx="1.3"/><rect width="6.5" height="3.6" x="8.75" y="13.9" rx="1.3"/></g><rect x="384" y="895.2" width="64" height="184.8" fill="#e5c95e"/><g transform="translate(401 913.2) scale(1.25)" fill="none" stroke="#12110d" stroke-width="1.5" stroke-linecap="round" stroke-linejoin="round"><path d="M2.75 10.75c2.4 4.4 5.9 6.6 9.25 6.6s6.85-2.2 9.25-6.6"/><path d="M2.75 10.75c3 1.35 6.1 2 9.25 2s6.25-.65 9.25-2"/><path d="M16.25 3.75 9.75 13"/></g><rect x="448" y="921.6" width="64" height="158.4" fill="#e5c95e"/><g transform="translate(465 939.6) scale(1.25)" fill="none" stroke="#12110d" stroke-width="1.5" stroke-linecap="round" stroke-linejoin="round"><rect width="19" height="9.75" x="2.5" y="6.5" rx="1.75"/><path d="M2.5 11.5h19M8 6.5v5m7.5-5v5"/><circle cx="7" cy="17.75" r="1.85"/><circle cx="17" cy="17.75" r="1.85"/></g><rect x="512" y="882" width="64" height="198" fill="#e5c95e"/><g transform="translate(529 900) scale(1.25)" fill="none" stroke="#12110d" stroke-width="1.5" stroke-linecap="round" stroke-linejoin="round"><circle cx="5.9" cy="16.25" r="3.6"/><circle cx="18.1" cy="16.25" r="3.6"/><path d="m5.9 16.25 4.35-6h4.25l3.6 6"/><path d="M8.5 10.25H15"/><path d="M14.5 10.25 16.25 7h2.25"/></g><rect x="576" y="895.2" width="64" height="184.8" fill="#e5c95e"/><g transform="translate(593 913.2) scale(1.25)" fill="none" stroke="#12110d" stroke-width="1.5" stroke-linecap="round" stroke-linejoin="round"><path d="M3 7.25c0-.97.78-1.75 1.75-1.75h14.5c.97 0 1.75.78 1.75 1.75v2.5a2.25 2.25 0 0 0 0 4.5v2.5c0 .97-.78 1.75-1.75 1.75H4.75A1.75 1.75 0 0 1 3 16.75v-2.5a2.25 2.25 0 0 0 0-4.5Z"/><path d="M15.5 7.75v1.5m0 2v1.5m0 2v1.5"/></g><rect x="640" y="877.6" width="64" height="202.4" fill="#47c7c7"/><g transform="translate(657 895.6) scale(1.25)" fill="none" stroke="#12110d" stroke-width="1.5" stroke-linecap="round" stroke-linejoin="round"><rect width="11" height="14.5" x="5" y="6.25" rx="1.25"/><path d="M8 6.25V4.5h5v1.75"/><path d="M16 9.75h2.25c.7 0 1.25.55 1.25 1.25v1.5"/><path d="m7.75 9.75 5.5 7.5m0-7.5-5.5 7.5"/></g><rect x="704" y="846.8" width="64" height="233.2" fill="#47c7c7"/><g transform="translate(721 864.8) scale(1.25)" fill="none" stroke="#12110d" stroke-width="1.5" stroke-linecap="round" stroke-linejoin="round"><path d="M2.75 11.5a9.25 7 0 0 1 18.5 0Z"/><path d="M12 4.5v7M7 5.75l1.75 5.75M17 5.75l-1.75 5.75"/><path d="M12 11.5v9"/><path d="M9 20.5h6"/></g><rect x="768" y="873.2" width="64" height="206.8" fill="#47c7c7"/><g transform="translate(785 891.2) scale(1.25)" fill="none" stroke="#12110d" stroke-width="1.5" stroke-linecap="round" stroke-linejoin="round"><rect width="18.5" height="12.5" x="2.75" y="5.75" rx="1.5"/><path d="M9.5 15.5v-7l5 7v-7"/><path d="M7.5 10.75h9m-9 2.5h9"/></g><rect x="832" y="833.6" width="64" height="246.4" fill="#47c7c7"/><g transform="translate(849 851.6) scale(1.25)" fill="none" stroke="#12110d" stroke-width="1.5" stroke-linecap="round" stroke-linejoin="round"><path d="M6.25 18.5v-13l11.5 13v-13"/><path d="M3.5 10.25h17m-17 3.5h17"/></g><rect x="896" y="846.8" width="64" height="233.2" fill="#47c7c7"/><g transform="translate(913 864.8) scale(1.25)" fill="none" stroke="#12110d" stroke-width="1.5" stroke-linecap="round" stroke-linejoin="round"><path d="M4 20.25h16"/><path d="M7 20.25 10.1 9.4l3.1 10.85"/><path d="m4.6 11.6 11.5-4.7"/><path d="M16.1 6.9a3.1 3.1 0 0 1 2.5 3.6"/><path d="M18.6 10.5v3"/><circle cx="5.1" cy="13.5" r="1.6"/></g><rect x="960" y="829.2" width="64" height="250.8" fill="#47c7c7"/><g transform="translate(977 847.2) scale(1.25)" fill="none" stroke="#12110d" stroke-width="1.5" stroke-linecap="round" stroke-linejoin="round"><path d="M8.75 3.5V2.25h6.5V3.5"/><rect width="11.5" height="17" x="6.25" y="3.5" rx="2"/><rect width="7" height="4" x="8.5" y="6" rx=".75"/><circle cx="9.5" cy="13.25" r=".6"/><circle cx="12" cy="13.25" r=".6"/><circle cx="14.5" cy="13.25" r=".6"/><circle cx="9.5" cy="16.5" r=".6"/><circle cx="12" cy="16.5" r=".6"/><circle cx="14.5" cy="16.5" r=".6"/></g><rect x="1024" y="798.4" width="64" height="281.6" fill="#ee939b"/><g transform="translate(1041 816.4) scale(1.25)" fill="none" stroke="#12110d" stroke-width="1.5" stroke-linecap="round" stroke-linejoin="round"><circle cx="12" cy="3.1" r=".9"/><path d="m12 4-5.5 9h11Z"/><path d="M5.25 13h13.5v2.75H5.25Z"/><path d="M7.5 15.75v3.5m2.5-3.5V20m2-4.25v4.75m2-4.75V20m2.5-4.25v3.5"/></g><rect x="1088" y="820.4" width="64" height="259.6" fill="#ee939b"/><g transform="translate(1105 838.4) scale(1.25)" fill="none" stroke="#12110d" stroke-width="1.5" stroke-linecap="round" stroke-linejoin="round"><path d="M9.25 3.5h5.5v3.25h-5.5Z"/><path d="M9.25 5.25h5.5"/><path d="m9.9 6.75-4.15 14m5.55-14-1.8 14m3.2-14 1.8 14m-.4-14 4.15 14"/></g><rect x="1152" y="785.2" width="64" height="294.8" fill="#ee939b"/><g transform="translate(1169 803.2) scale(1.25)" fill="none" stroke="#12110d" stroke-width="1.5" stroke-linecap="round" stroke-linejoin="round"><ellipse cx="12" cy="14.25" rx="6.25" ry="5.75"/><path d="M10.6 3.5h2.8"/><path d="M10.6 3.5c0 1.5.5 2.4.5 3.6 0 1.1-.75 1.85-1.35 2.6m3.65-6.2c0 1.5-.5 2.4-.5 3.6 0 1.1.75 1.85 1.35 2.6"/><path d="M7 17.5c1.65 1.15 3.35 1.15 5 0s3.35-1.15 5 0"/></g><rect x="1216" y="798.4" width="64" height="281.6" fill="#ee939b"/><g transform="translate(1233 816.4) scale(1.25)" fill="none" stroke="#12110d" stroke-width="1.5" stroke-linecap="round" stroke-linejoin="round"><ellipse cx="12" cy="4.75" rx="3.25" ry="1.1"/><path d="M8.75 5.5c.5 1.1.2 2-.8 2.85a6.85 6.85 0 1 0 8.1 0c-1-.85-1.3-1.75-.8-2.85"/><path d="M6.6 13c1.8 1.25 3.6-1.25 5.4 0s3.6 1.25 5.4 0"/></g><rect x="1280" y="780.8" width="64" height="299.2" fill="#ee939b"/><g transform="translate(1297 798.8) scale(1.25)" fill="none" stroke="#12110d" stroke-width="1.5" stroke-linecap="round" stroke-linejoin="round"><path d="M9 6.5V5.25a3 2.75 0 0 1 6 0V6.5"/><path d="M7.75 6.5h8.5l-1 2.25h-6.5Z"/><path d="M8.75 8.75c-1.5 2.25-1.5 6 0 8.25h6.5c1.5-2.25 1.5-6 0-8.25Z"/><path d="M6.75 17h10.5v3.5H6.75Z"/></g><rect x="1344" y="750" width="64" height="330" fill="#b093e5"/><g transform="translate(1361 768) scale(1.25)" fill="none" stroke="#12110d" stroke-width="1.5" stroke-linecap="round" stroke-linejoin="round"><path d="M7.5 6.75 5.4 13.4a2.15.85 0 0 0 4.2 0Z"/><path d="M15.5 4.75 12.6 15.4a2.95 1.15 0 0 0 5.9 0Z"/><path d="M7.5 6.75c1-2.35 6-3.85 8-2"/></g><rect x="1408" y="772" width="64" height="308" fill="#b093e5"/><g transform="translate(1425 790) scale(1.25)" fill="none" stroke="#12110d" stroke-width="1.5" stroke-linecap="round" stroke-linejoin="round"><rect width="18" height="9.25" x="3" y="10.25" rx="1.5"/><path d="m3.4 9.1 17-5.5.85 2.6-17 5.5Z"/><path d="m8.35 7.5.7 2.2m3.8-3.65.7 2.2m3.8-3.65.7 2.2"/></g><rect x="1472" y="736.8" width="64" height="343.2" fill="#b093e5"/><g transform="translate(1489 754.8) scale(1.25)" fill="none" stroke="#12110d" stroke-width="1.5" stroke-linecap="round" stroke-linejoin="round"><path d="M9.75 3.5h4.5m-4.5 0v3.6m4.5-3.6v3.6m-4.5-1.7h4.5"/><ellipse cx="12" cy="13.6" rx="6.6" ry="6.9"/><path d="M12 6.75v13.7M5.4 13.6h13.2"/><path d="m7.35 8.95 9.3 9.3m0-9.3-9.3 9.3"/></g><rect x="1536" y="750" width="64" height="330" fill="#b093e5"/><g transform="translate(1553 768) scale(1.25)" fill="none" stroke="#12110d" stroke-width="1.5" stroke-linecap="round" stroke-linejoin="round"><ellipse cx="12" cy="5.5" rx="5.5" ry="1.75"/><path d="M6.5 5.5c1.4 4 1.4 9 0 13m11-13c-1.4 4-1.4 9 0 13"/><path d="M6.5 18.5a5.5 1.75 0 0 0 11 0"/><path d="m9.3 7 1.3 10m4.1-10-1.3 10M12 7.25V17"/></g><rect x="1600" y="736.8" width="64" height="343.2" fill="#69a1e8"/><g transform="translate(1617 754.8) scale(1.25)" fill="none" stroke="#12110d" stroke-width="1.5" stroke-linecap="round" stroke-linejoin="round"><ellipse cx="6" cy="12" rx="2.25" ry="6.5"/><path d="M6 5.5h11.75a2.25 6.5 0 0 1 0 13H6"/><path d="M10 5.75v12.5m4-12.5v12.5"/></g><rect x="1664" y="736.8" width="64" height="343.2" fill="#69a1e8"/><g transform="translate(1681 754.8) scale(1.25)" fill="none" stroke="#12110d" stroke-width="1.5" stroke-linecap="round" stroke-linejoin="round"><path d="M4.01 8.59a9.75 9.75 0 0 0 15.98 0"/><circle cx="4.01" cy="8.59" r="1.3"/><circle cx="7.88" cy="11.84" r="1.3"/><circle cx="12" cy="12.75" r="1.3"/><circle cx="16.12" cy="11.84" r="1.3"/><circle cx="19.99" cy="8.59" r="1.3"/><ellipse cx="12" cy="16.9" rx="1.6" ry="2.3"/></g><rect x="1728" y="736.8" width="64" height="343.2" fill="#76c788"/><g transform="translate(1745 754.8) scale(1.25)" fill="none" stroke="#12110d" stroke-width="1.5" stroke-linecap="round" stroke-linejoin="round"><path d="M8.75 4.5H7L3.75 7.75l2 2.25 1.5-1.3v10.05a1 1 0 0 0 1 1h7.5a1 1 0 0 0 1-1V8.7l1.5 1.3 2-2.25L17 4.5h-1.75a3.25 3.25 0 0 1-6.5 0"/></g><rect x="1792" y="736.8" width="64" height="343.2" fill="#76c788"/><g transform="translate(1809 754.8) scale(1.25)" fill="none" stroke="#12110d" stroke-width="1.5" stroke-linecap="round" stroke-linejoin="round"><rect width="18.5" height="13.5" x="2.75" y="5.25" rx="1.5"/><path d="M8.92 5.25v13.5m6.16-13.5v13.5"/></g><rect x="1856" y="736.8" width="64" height="343.2" fill="#76c788"/><g transform="translate(1873 754.8) scale(1.25)" fill="none" stroke="#12110d" stroke-width="1.5" stroke-linecap="round" stroke-linejoin="round"><rect width="14.5" height="18.5" x="4.75" y="2.75" rx="2"/><circle cx="12" cy="10.5" r="3.75"/><path d="M12 6.75c-2 2.2-2 5.3 0 7.5m0-7.5c2 2.2 2 5.3 0 7.5M8.25 10.5h7.5"/><path d="M8.5 17.5h7"/></g><line x1="0" y1="640" x2="0" y2="1080" stroke="#2a2822" stroke-width="1"/><line x1="64" y1="640" x2="64" y2="1080" stroke="#2a2822" stroke-width="1"/><line x1="128" y1="640" x2="128" y2="1080" stroke="#2a2822" stroke-width="1"/><line x1="192" y1="640" x2="192" y2="1080" stroke="#2a2822" stroke-width="1"/><line x1="256" y1="640" x2="256" y2="1080" stroke="#2a2822" stroke-width="1"/><line x1="320" y1="640" x2="320" y2="1080" stroke="#2a2822" stroke-width="1"/><line x1="384" y1="640" x2="384" y2="1080" stroke="#2a2822" stroke-width="1"/><line x1="448" y1="640" x2="448" y2="1080" stroke="#2a2822" stroke-width="1"/><line x1="512" y1="640" x2="512" y2="1080" stroke="#2a2822" stroke-width="1"/><line x1="576" y1="640" x2="576" y2="1080" stroke="#2a2822" stroke-width="1"/><line x1="640" y1="640" x2="640" y2="1080" stroke="#2a2822" stroke-width="1"/><line x1="704" y1="640" x2="704" y2="1080" stroke="#2a2822" stroke-width="1"/><line x1="768" y1="640" x2="768" y2="1080" stroke="#2a2822" stroke-width="1"/><line x1="832" y1="640" x2="832" y2="1080" stroke="#2a2822" stroke-width="1"/><line x1="896" y1="640" x2="896" y2="1080" stroke="#2a2822" stroke-width="1"/><line x1="960" y1="640" x2="960" y2="1080" stroke="#2a2822" stroke-width="1"/><line x1="1024" y1="640" x2="1024" y2="1080" stroke="#2a2822" stroke-width="1"/><line x1="1088" y1="640" x2="1088" y2="1080" stroke="#2a2822" stroke-width="1"/><line x1="1152" y1="640" x2="1152" y2="1080" stroke="#2a2822" stroke-width="1"/><line x1="1216" y1="640" x2="1216" y2="1080" stroke="#2a2822" stroke-width="1"/><line x1="1280" y1="640" x2="1280" y2="1080" stroke="#2a2822" stroke-width="1"/><line x1="1344" y1="640" x2="1344" y2="1080" stroke="#2a2822" stroke-width="1"/><line x1="1408" y1="640" x2="1408" y2="1080" stroke="#2a2822" stroke-width="1"/><line x1="1472" y1="640" x2="1472" y2="1080" stroke="#2a2822" stroke-width="1"/><line x1="1536" y1="640" x2="1536" y2="1080" stroke="#2a2822" stroke-width="1"/><line x1="1600" y1="640" x2="1600" y2="1080" stroke="#2a2822" stroke-width="1"/><line x1="1664" y1="640" x2="1664" y2="1080" stroke="#2a2822" stroke-width="1"/><line x1="1728" y1="640" x2="1728" y2="1080" stroke="#2a2822" stroke-width="1"/><line x1="1792" y1="640" x2="1792" y2="1080" stroke="#2a2822" stroke-width="1"/><line x1="1856" y1="640" x2="1856" y2="1080" stroke="#2a2822" stroke-width="1"/><line x1="1920" y1="640" x2="1920" y2="1080" stroke="#2a2822" stroke-width="1"/><line x1="0" y1="640" x2="1920" y2="640" stroke="#2a2822" stroke-width="1"/></svg>
