<svg xmlns="http://www.w3.org/2000/svg" width="1080" height="1080" viewBox="0 0 1080 1080"><rect width="1080" height="1080" fill="#12110d"/><rect x="84" y="103.2" width="1" height="18.72" fill="#79c79a"/><text x="100" y="120" font-family="'Geist Mono', ui-monospace, Menlo, monospace" font-size="16" font-weight="400" letter-spacing="0.96" fill="#a9a395" text-anchor="start">AFRICAN ICON LIBRARY · V2</text><text x="84" y="236.8" font-family="Geist, 'Geist Fallback', Arial, sans-serif" font-size="96" font-weight="400" letter-spacing="-4.8" fill="#f2f0e9" text-anchor="start">Icons for the</text><text x="84" y="330.88" font-family="Geist, 'Geist Fallback', Arial, sans-serif" font-size="96" font-weight="400" letter-spacing="-4.8" fill="#f2f0e9" text-anchor="start">things African</text><text x="84" y="424.96" font-family="Geist, 'Geist Fallback', Arial, sans-serif" font-size="96" font-weight="400" letter-spacing="-4.8" fill="#f2f0e9" text-anchor="start">products</text><text x="84" y="519.04" font-family="Geist, 'Geist Fallback', Arial, sans-serif" font-size="96" font-weight="400" letter-spacing="-4.8" fill="#f2f0e9" text-anchor="start">actually need.</text><rect x="0" y="640" width="1080" height="440" fill="#12110d"/><rect x="0" y="974.4" width="36" height="105.6" fill="#f39762"/><g transform="translate(6.84 987.79) scale(0.93)" fill="none" stroke="#12110d" stroke-width="1.5" stroke-linecap="round" stroke-linejoin="round"><path d="M3.5 11.75a8.5 7.5 0 0 0 17 0Z"/><circle cx="7.9" cy="9.6" r="1.75"/><circle cx="12" cy="9.9" r="1.75"/><circle cx="16.1" cy="9.6" r="1.75"/><circle cx="9.9" cy="6.5" r="1.75"/><circle cx="14.1" cy="6.5" r="1.75"/></g><rect x="36" y="943.6" width="36" height="136.4" fill="#f39762"/><g transform="translate(42.84 956.99) scale(0.93)" fill="none" stroke="#12110d" stroke-width="1.5" stroke-linecap="round" stroke-linejoin="round"><path d="M12 8c-3.9 0-6.9 2.5-6.9 5.9 0 3.75 3.1 6.35 6.9 6.35s6.9-2.6 6.9-6.35c0-3.4-3-5.9-6.9-5.9"/><path d="M8.6 12.9c-.15 2.75 1.05 4.9 3.4 6.35m3.4-6.35c.15 2.75-1.05 4.9-3.4 6.35"/><path d="M12 8V6.4c0-1.6 1.2-2.9 2.8-2.9h1.6"/></g><rect x="72" y="970" width="36" height="110" fill="#f39762"/><g transform="translate(78.84 983.39) scale(0.93)" fill="none" stroke="#12110d" stroke-width="1.5" stroke-linecap="round" stroke-linejoin="round"><path d="M12 3.25c3.6 2.3 5.6 6.1 5.6 9.6 0 4.1-2.5 7.2-5.6 7.7-3.1-.5-5.6-3.6-5.6-7.7 0-3.5 2-7.3 5.6-9.6"/><path d="M12 4.5v15"/></g><rect x="108" y="930.4" width="36" height="149.6" fill="#f39762"/><g transform="translate(114.84 943.79) scale(0.93)" fill="none" stroke="#12110d" stroke-width="1.5" stroke-linecap="round" stroke-linejoin="round"><path d="M5.5 15.5a6.5 6.5 0 0 1 13 0"/><path d="M3.25 15.5h17.5"/><path d="M6 15.5a6.75 2.4 0 0 0 12 0"/><path d="m9.3 12.3 1 .4m3.4-1.7 1 .4m-3.4-1.8 1 .4"/></g><rect x="144" y="943.6" width="36" height="136.4" fill="#f39762"/><g transform="translate(150.84 956.99) scale(0.93)" fill="none" stroke="#12110d" stroke-width="1.5" stroke-linecap="round" stroke-linejoin="round"><path d="M3.75 10.75h16.5a8.25 7.25 0 0 1-5.5 6.85v1.65h-5.5V17.6a8.25 7.25 0 0 1-5.5-6.85"/><path d="M9.75 4c-.6 1.1.6 1.7 0 2.8m4.5-2.8c-.6 1.1.6 1.7 0 2.8"/></g><rect x="180" y="926" width="36" height="154" fill="#f39762"/><g transform="translate(186.84 939.39) scale(0.93)" fill="none" stroke="#12110d" stroke-width="1.5" stroke-linecap="round" stroke-linejoin="round"><path d="M12 2.5v2m0 14v3"/><rect width="6.5" height="3.6" x="8.75" y="4.5" rx="1.3"/><rect width="6.5" height="3.6" x="8.75" y="9.2" rx="1.3"/><rect width="6.5" height="3.6" x="8.75" y="13.9" rx="1.3"/></g><rect x="216" y="895.2" width="36" height="184.8" fill="#e5c95e"/><g transform="translate(222.84 908.59) scale(0.93)" fill="none" stroke="#12110d" stroke-width="1.5" stroke-linecap="round" stroke-linejoin="round"><path d="M2.75 10.75c2.4 4.4 5.9 6.6 9.25 6.6s6.85-2.2 9.25-6.6"/><path d="M2.75 10.75c3 1.35 6.1 2 9.25 2s6.25-.65 9.25-2"/><path d="M16.25 3.75 9.75 13"/></g><rect x="252" y="921.6" width="36" height="158.4" fill="#e5c95e"/><g transform="translate(258.84 934.99) scale(0.93)" fill="none" stroke="#12110d" stroke-width="1.5" stroke-linecap="round" stroke-linejoin="round"><rect width="19" height="9.75" x="2.5" y="6.5" rx="1.75"/><path d="M2.5 11.5h19M8 6.5v5m7.5-5v5"/><circle cx="7" cy="17.75" r="1.85"/><circle cx="17" cy="17.75" r="1.85"/></g><rect x="288" y="882" width="36" height="198" fill="#e5c95e"/><g transform="translate(294.84 895.39) scale(0.93)" fill="none" stroke="#12110d" stroke-width="1.5" stroke-linecap="round" stroke-linejoin="round"><circle cx="5.9" cy="16.25" r="3.6"/><circle cx="18.1" cy="16.25" r="3.6"/><path d="m5.9 16.25 4.35-6h4.25l3.6 6"/><path d="M8.5 10.25H15"/><path d="M14.5 10.25 16.25 7h2.25"/></g><rect x="324" y="895.2" width="36" height="184.8" fill="#e5c95e"/><g transform="translate(330.84 908.59) scale(0.93)" fill="none" stroke="#12110d" stroke-width="1.5" stroke-linecap="round" stroke-linejoin="round"><path d="M3 7.25c0-.97.78-1.75 1.75-1.75h14.5c.97 0 1.75.78 1.75 1.75v2.5a2.25 2.25 0 0 0 0 4.5v2.5c0 .97-.78 1.75-1.75 1.75H4.75A1.75 1.75 0 0 1 3 16.75v-2.5a2.25 2.25 0 0 0 0-4.5Z"/><path d="M15.5 7.75v1.5m0 2v1.5m0 2v1.5"/></g><rect x="360" y="877.6" width="36" height="202.4" fill="#47c7c7"/><g transform="translate(366.84 890.99) scale(0.93)" fill="none" stroke="#12110d" stroke-width="1.5" stroke-linecap="round" stroke-linejoin="round"><rect width="11" height="14.5" x="5" y="6.25" rx="1.25"/><path d="M8 6.25V4.5h5v1.75"/><path d="M16 9.75h2.25c.7 0 1.25.55 1.25 1.25v1.5"/><path d="m7.75 9.75 5.5 7.5m0-7.5-5.5 7.5"/></g><rect x="396" y="846.8" width="36" height="233.2" fill="#47c7c7"/><g transform="translate(402.84 860.19) scale(0.93)" fill="none" stroke="#12110d" stroke-width="1.5" stroke-linecap="round" stroke-linejoin="round"><path d="M2.75 11.5a9.25 7 0 0 1 18.5 0Z"/><path d="M12 4.5v7M7 5.75l1.75 5.75M17 5.75l-1.75 5.75"/><path d="M12 11.5v9"/><path d="M9 20.5h6"/></g><rect x="432" y="873.2" width="36" height="206.8" fill="#47c7c7"/><g transform="translate(438.84 886.59) scale(0.93)" fill="none" stroke="#12110d" stroke-width="1.5" stroke-linecap="round" stroke-linejoin="round"><rect width="18.5" height="12.5" x="2.75" y="5.75" rx="1.5"/><path d="M9.5 15.5v-7l5 7v-7"/><path d="M7.5 10.75h9m-9 2.5h9"/></g><rect x="468" y="833.6" width="36" height="246.4" fill="#47c7c7"/><g transform="translate(474.84 846.99) scale(0.93)" fill="none" stroke="#12110d" stroke-width="1.5" stroke-linecap="round" stroke-linejoin="round"><path d="M6.25 18.5v-13l11.5 13v-13"/><path d="M3.5 10.25h17m-17 3.5h17"/></g><rect x="504" y="846.8" width="36" height="233.2" fill="#47c7c7"/><g transform="translate(510.84 860.19) scale(0.93)" fill="none" stroke="#12110d" stroke-width="1.5" stroke-linecap="round" stroke-linejoin="round"><path d="M4 20.25h16"/><path d="M7 20.25 10.1 9.4l3.1 10.85"/><path d="m4.6 11.6 11.5-4.7"/><path d="M16.1 6.9a3.1 3.1 0 0 1 2.5 3.6"/><path d="M18.6 10.5v3"/><circle cx="5.1" cy="13.5" r="1.6"/></g><rect x="540" y="829.2" width="36" height="250.8" fill="#47c7c7"/><g transform="translate(546.84 842.59) scale(0.93)" fill="none" stroke="#12110d" stroke-width="1.5" stroke-linecap="round" stroke-linejoin="round"><path d="M8.75 3.5V2.25h6.5V3.5"/><rect width="11.5" height="17" x="6.25" y="3.5" rx="2"/><rect width="7" height="4" x="8.5" y="6" rx=".75"/><circle cx="9.5" cy="13.25" r=".6"/><circle cx="12" cy="13.25" r=".6"/><circle cx="14.5" cy="13.25" r=".6"/><circle cx="9.5" cy="16.5" r=".6"/><circle cx="12" cy="16.5" r=".6"/><circle cx="14.5" cy="16.5" r=".6"/></g><rect x="576" y="798.4" width="36" height="281.6" fill="#ee939b"/><g transform="translate(582.84 811.79) scale(0.93)" fill="none" stroke="#12110d" stroke-width="1.5" stroke-linecap="round" stroke-linejoin="round"><circle cx="12" cy="3.1" r=".9"/><path d="m12 4-5.5 9h11Z"/><path d="M5.25 13h13.5v2.75H5.25Z"/><path d="M7.5 15.75v3.5m2.5-3.5V20m2-4.25v4.75m2-4.75V20m2.5-4.25v3.5"/></g><rect x="612" y="820.4" width="36" height="259.6" fill="#ee939b"/><g transform="translate(618.84 833.79) scale(0.93)" fill="none" stroke="#12110d" stroke-width="1.5" stroke-linecap="round" stroke-linejoin="round"><path d="M9.25 3.5h5.5v3.25h-5.5Z"/><path d="M9.25 5.25h5.5"/><path d="m9.9 6.75-4.15 14m5.55-14-1.8 14m3.2-14 1.8 14m-.4-14 4.15 14"/></g><rect x="648" y="785.2" width="36" height="294.8" fill="#ee939b"/><g transform="translate(654.84 798.59) scale(0.93)" fill="none" stroke="#12110d" stroke-width="1.5" stroke-linecap="round" stroke-linejoin="round"><ellipse cx="12" cy="14.25" rx="6.25" ry="5.75"/><path d="M10.6 3.5h2.8"/><path d="M10.6 3.5c0 1.5.5 2.4.5 3.6 0 1.1-.75 1.85-1.35 2.6m3.65-6.2c0 1.5-.5 2.4-.5 3.6 0 1.1.75 1.85 1.35 2.6"/><path d="M7 17.5c1.65 1.15 3.35 1.15 5 0s3.35-1.15 5 0"/></g><rect x="684" y="798.4" width="36" height="281.6" fill="#ee939b"/><g transform="translate(690.84 811.79) scale(0.93)" fill="none" stroke="#12110d" stroke-width="1.5" stroke-linecap="round" stroke-linejoin="round"><ellipse cx="12" cy="4.75" rx="3.25" ry="1.1"/><path d="M8.75 5.5c.5 1.1.2 2-.8 2.85a6.85 6.85 0 1 0 8.1 0c-1-.85-1.3-1.75-.8-2.85"/><path d="M6.6 13c1.8 1.25 3.6-1.25 5.4 0s3.6 1.25 5.4 0"/></g><rect x="720" y="780.8" width="36" height="299.2" fill="#ee939b"/><g transform="translate(726.84 794.19) scale(0.93)" fill="none" stroke="#12110d" stroke-width="1.5" stroke-linecap="round" stroke-linejoin="round"><path d="M9 6.5V5.25a3 2.75 0 0 1 6 0V6.5"/><path d="M7.75 6.5h8.5l-1 2.25h-6.5Z"/><path d="M8.75 8.75c-1.5 2.25-1.5 6 0 8.25h6.5c1.5-2.25 1.5-6 0-8.25Z"/><path d="M6.75 17h10.5v3.5H6.75Z"/></g><rect x="756" y="750" width="36" height="330" fill="#b093e5"/><g transform="translate(762.84 763.39) scale(0.93)" fill="none" stroke="#12110d" stroke-width="1.5" stroke-linecap="round" stroke-linejoin="round"><path d="M7.5 6.75 5.4 13.4a2.15.85 0 0 0 4.2 0Z"/><path d="M15.5 4.75 12.6 15.4a2.95 1.15 0 0 0 5.9 0Z"/><path d="M7.5 6.75c1-2.35 6-3.85 8-2"/></g><rect x="792" y="772" width="36" height="308" fill="#b093e5"/><g transform="translate(798.84 785.39) scale(0.93)" fill="none" stroke="#12110d" stroke-width="1.5" stroke-linecap="round" stroke-linejoin="round"><rect width="18" height="9.25" x="3" y="10.25" rx="1.5"/><path d="m3.4 9.1 17-5.5.85 2.6-17 5.5Z"/><path d="m8.35 7.5.7 2.2m3.8-3.65.7 2.2m3.8-3.65.7 2.2"/></g><rect x="828" y="736.8" width="36" height="343.2" fill="#b093e5"/><g transform="translate(834.84 750.19) scale(0.93)" fill="none" stroke="#12110d" stroke-width="1.5" stroke-linecap="round" stroke-linejoin="round"><path d="M9.75 3.5h4.5m-4.5 0v3.6m4.5-3.6v3.6m-4.5-1.7h4.5"/><ellipse cx="12" cy="13.6" rx="6.6" ry="6.9"/><path d="M12 6.75v13.7M5.4 13.6h13.2"/><path d="m7.35 8.95 9.3 9.3m0-9.3-9.3 9.3"/></g><rect x="864" y="750" width="36" height="330" fill="#b093e5"/><g transform="translate(870.84 763.39) scale(0.93)" fill="none" stroke="#12110d" stroke-width="1.5" stroke-linecap="round" stroke-linejoin="round"><ellipse cx="12" cy="5.5" rx="5.5" ry="1.75"/><path d="M6.5 5.5c1.4 4 1.4 9 0 13m11-13c-1.4 4-1.4 9 0 13"/><path d="M6.5 18.5a5.5 1.75 0 0 0 11 0"/><path d="m9.3 7 1.3 10m4.1-10-1.3 10M12 7.25V17"/></g><rect x="900" y="736.8" width="36" height="343.2" fill="#69a1e8"/><g transform="translate(906.84 750.19) scale(0.93)" fill="none" stroke="#12110d" stroke-width="1.5" stroke-linecap="round" stroke-linejoin="round"><ellipse cx="6" cy="12" rx="2.25" ry="6.5"/><path d="M6 5.5h11.75a2.25 6.5 0 0 1 0 13H6"/><path d="M10 5.75v12.5m4-12.5v12.5"/></g><rect x="936" y="736.8" width="36" height="343.2" fill="#69a1e8"/><g transform="translate(942.84 750.19) scale(0.93)" fill="none" stroke="#12110d" stroke-width="1.5" stroke-linecap="round" stroke-linejoin="round"><path d="M4.01 8.59a9.75 9.75 0 0 0 15.98 0"/><circle cx="4.01" cy="8.59" r="1.3"/><circle cx="7.88" cy="11.84" r="1.3"/><circle cx="12" cy="12.75" r="1.3"/><circle cx="16.12" cy="11.84" r="1.3"/><circle cx="19.99" cy="8.59" r="1.3"/><ellipse cx="12" cy="16.9" rx="1.6" ry="2.3"/></g><rect x="972" y="736.8" width="36" height="343.2" fill="#76c788"/><g transform="translate(978.84 750.19) scale(0.93)" fill="none" stroke="#12110d" stroke-width="1.5" stroke-linecap="round" stroke-linejoin="round"><path d="M8.75 4.5H7L3.75 7.75l2 2.25 1.5-1.3v10.05a1 1 0 0 0 1 1h7.5a1 1 0 0 0 1-1V8.7l1.5 1.3 2-2.25L17 4.5h-1.75a3.25 3.25 0 0 1-6.5 0"/></g><rect x="1008" y="736.8" width="36" height="343.2" fill="#76c788"/><g transform="translate(1014.84 750.19) scale(0.93)" fill="none" stroke="#12110d" stroke-width="1.5" stroke-linecap="round" stroke-linejoin="round"><rect width="18.5" height="13.5" x="2.75" y="5.25" rx="1.5"/><path d="M8.92 5.25v13.5m6.16-13.5v13.5"/></g><rect x="1044" y="736.8" width="36" height="343.2" fill="#76c788"/><g transform="translate(1050.84 750.19) scale(0.93)" fill="none" stroke="#12110d" stroke-width="1.5" stroke-linecap="round" stroke-linejoin="round"><rect width="14.5" height="18.5" x="4.75" y="2.75" rx="2"/><circle cx="12" cy="10.5" r="3.75"/><path d="M12 6.75c-2 2.2-2 5.3 0 7.5m0-7.5c2 2.2 2 5.3 0 7.5M8.25 10.5h7.5"/><path d="M8.5 17.5h7"/></g><line x1="0" y1="640" x2="0" y2="1080" stroke="#2a2822" stroke-width="1"/><line x1="36" y1="640" x2="36" y2="1080" stroke="#2a2822" stroke-width="1"/><line x1="72" y1="640" x2="72" y2="1080" stroke="#2a2822" stroke-width="1"/><line x1="108" y1="640" x2="108" y2="1080" stroke="#2a2822" stroke-width="1"/><line x1="144" y1="640" x2="144" y2="1080" stroke="#2a2822" stroke-width="1"/><line x1="180" y1="640" x2="180" y2="1080" stroke="#2a2822" stroke-width="1"/><line x1="216" y1="640" x2="216" y2="1080" stroke="#2a2822" stroke-width="1"/><line x1="252" y1="640" x2="252" y2="1080" stroke="#2a2822" stroke-width="1"/><line x1="288" y1="640" x2="288" y2="1080" stroke="#2a2822" stroke-width="1"/><line x1="324" y1="640" x2="324" y2="1080" stroke="#2a2822" stroke-width="1"/><line x1="360" y1="640" x2="360" y2="1080" stroke="#2a2822" stroke-width="1"/><line x1="396" y1="640" x2="396" y2="1080" stroke="#2a2822" stroke-width="1"/><line x1="432" y1="640" x2="432" y2="1080" stroke="#2a2822" stroke-width="1"/><line x1="468" y1="640" x2="468" y2="1080" stroke="#2a2822" stroke-width="1"/><line x1="504" y1="640" x2="504" y2="1080" stroke="#2a2822" stroke-width="1"/><line x1="540" y1="640" x2="540" y2="1080" stroke="#2a2822" stroke-width="1"/><line x1="576" y1="640" x2="576" y2="1080" stroke="#2a2822" stroke-width="1"/><line x1="612" y1="640" x2="612" y2="1080" stroke="#2a2822" stroke-width="1"/><line x1="648" y1="640" x2="648" y2="1080" stroke="#2a2822" stroke-width="1"/><line x1="684" y1="640" x2="684" y2="1080" stroke="#2a2822" stroke-width="1"/><line x1="720" y1="640" x2="720" y2="1080" stroke="#2a2822" stroke-width="1"/><line x1="756" y1="640" x2="756" y2="1080" stroke="#2a2822" stroke-width="1"/><line x1="792" y1="640" x2="792" y2="1080" stroke="#2a2822" stroke-width="1"/><line x1="828" y1="640" x2="828" y2="1080" stroke="#2a2822" stroke-width="1"/><line x1="864" y1="640" x2="864" y2="1080" stroke="#2a2822" stroke-width="1"/><line x1="900" y1="640" x2="900" y2="1080" stroke="#2a2822" stroke-width="1"/><line x1="936" y1="640" x2="936" y2="1080" stroke="#2a2822" stroke-width="1"/><line x1="972" y1="640" x2="972" y2="1080" stroke="#2a2822" stroke-width="1"/><line x1="1008" y1="640" x2="1008" y2="1080" stroke="#2a2822" stroke-width="1"/><line x1="1044" y1="640" x2="1044" y2="1080" stroke="#2a2822" stroke-width="1"/><line x1="1080" y1="640" x2="1080" y2="1080" stroke="#2a2822" stroke-width="1"/><line x1="0" y1="640" x2="1080" y2="640" stroke="#2a2822" stroke-width="1"/></svg>
