<svg xmlns="http://www.w3.org/2000/svg" width="1200" height="630" viewBox="0 0 1200 630"><rect width="1200" height="630" fill="#efede6"/><text x="80" y="90" font-family="'Geist Mono', ui-monospace, SFMono-Regular, Menlo, monospace" font-size="20" font-weight="400" fill="#55514a" text-anchor="start">REDRAWN</text><text x="80" y="150" font-family="'Geist Mono', ui-monospace, SFMono-Regular, Menlo, monospace" font-size="44" font-weight="400" fill="#12110d" text-anchor="start">clay-pot</text><text x="80" y="195" font-family="Geist, ui-sans-serif, system-ui, -apple-system, 'Segoe UI', Roboto, sans-serif" font-size="22" font-weight="400" fill="#55514a" text-anchor="start">A round-bellied clay water pot with a flared rim and a banded waist.</text><line x1="600" y1="250" x2="600" y2="500" stroke="#d6d2c5" stroke-width="2"/><g transform="translate(260 280) scale(7.5)" fill="none" stroke="#12110d" stroke-width="1.5" stroke-linecap="round" stroke-linejoin="round"><ellipse cx="12" cy="4.75" rx="3.25" ry="1.1"/><path d="M8.75 5.5c.5 1.2.2 2.2-.8 3.1a7.4 7.4 0 1 0 8.1 0c-1-.9-1.3-1.9-.8-3.1"/><path d="M6.3 13.75c1.9 1.3 3.8-1.3 5.7 0s3.8 1.3 5.7 0"/></g><text x="350" y="510" font-family="'Geist Mono', ui-monospace, SFMono-Regular, Menlo, monospace" font-size="22" font-weight="400" fill="#55514a" text-anchor="middle">before</text><text x="350" y="542" font-family="Geist, ui-sans-serif, system-ui, -apple-system, 'Segoe UI', Roboto, sans-serif" font-size="18" font-weight="400" fill="#55514a" text-anchor="middle">left the 2-unit live area</text><g transform="translate(760 280) scale(7.5)" fill="none" stroke="#12110d" stroke-width="1.5" stroke-linecap="round" stroke-linejoin="round"><ellipse cx="12" cy="4.75" rx="3.25" ry="1.1"/><path d="M8.75 5.5c.5 1.1.2 2-.8 2.85a6.85 6.85 0 1 0 8.1 0c-1-.85-1.3-1.75-.8-2.85"/><path d="M6.6 13c1.8 1.25 3.6-1.25 5.4 0s3.6 1.25 5.4 0"/></g><text x="850" y="510" font-family="'Geist Mono', ui-monospace, SFMono-Regular, Menlo, monospace" font-size="22" font-weight="400" fill="#55514a" text-anchor="middle">after</text><text x="850" y="542" font-family="Geist, ui-sans-serif, system-ui, -apple-system, 'Segoe UI', Roboto, sans-serif" font-size="18" font-weight="400" fill="#55514a" text-anchor="middle">fits, and reads at 16 px</text></svg>
