<svg xmlns="http://www.w3.org/2000/svg" width="576" height="384" viewBox="0 0 576 384"><rect width="576" height="384" fill="#FAF9F6"/><text x="28" y="32" font-family="ui-sans-serif,system-ui,sans-serif" font-size="16" fill="#16150F">Music, Art &amp; Play</text>
<text x="28" y="50" font-family="ui-sans-serif,system-ui,sans-serif" font-size="11" fill="#56524A">4 icons · the 16 px column decides whether a drawing survives</text>
<line x1="28" y1="60" x2="548" y2="60" stroke="#E2DED3"/>
<text x="215" y="68" font-family="ui-monospace,SFMono-Regular,Menlo,monospace" font-size="7" fill="#56524A" text-anchor="middle">16px</text>
<text x="289" y="68" font-family="ui-monospace,SFMono-Regular,Menlo,monospace" font-size="7" fill="#56524A" text-anchor="middle">20px</text>
<text x="363" y="68" font-family="ui-monospace,SFMono-Regular,Menlo,monospace" font-size="7" fill="#56524A" text-anchor="middle">24px</text>
<text x="437" y="68" font-family="ui-monospace,SFMono-Regular,Menlo,monospace" font-size="7" fill="#56524A" text-anchor="middle">32px</text>
<text x="511" y="68" font-family="ui-monospace,SFMono-Regular,Menlo,monospace" font-size="7" fill="#56524A" text-anchor="middle">48px</text>
<text x="28" y="116" font-family="ui-monospace,SFMono-Regular,Menlo,monospace" font-size="10" fill="#16150F">agogo</text>
<g transform="translate(207 100) scale(0.6666666666666666)" fill="none" stroke="#16150F" stroke-width="1.5" stroke-linecap="round" stroke-linejoin="round"><path d="M7.5 6.75 5.4 13.4a2.15.85 0 0 0 4.2 0Z"/><path d="M15.5 4.75 12.6 15.4a2.95 1.15 0 0 0 5.9 0Z"/><path d="M7.5 6.75c1-2.35 6-3.85 8-2"/></g>
<g transform="translate(279 96) scale(0.8333333333333334)" fill="none" stroke="#16150F" stroke-width="1.5" stroke-linecap="round" stroke-linejoin="round"><path d="M7.5 6.75 5.4 13.4a2.15.85 0 0 0 4.2 0Z"/><path d="M15.5 4.75 12.6 15.4a2.95 1.15 0 0 0 5.9 0Z"/><path d="M7.5 6.75c1-2.35 6-3.85 8-2"/></g>
<g transform="translate(351 92) scale(1)" fill="none" stroke="#16150F" stroke-width="1.5" stroke-linecap="round" stroke-linejoin="round"><path d="M7.5 6.75 5.4 13.4a2.15.85 0 0 0 4.2 0Z"/><path d="M15.5 4.75 12.6 15.4a2.95 1.15 0 0 0 5.9 0Z"/><path d="M7.5 6.75c1-2.35 6-3.85 8-2"/></g>
<g transform="translate(421 84) scale(1.3333333333333333)" fill="none" stroke="#16150F" stroke-width="1.5" stroke-linecap="round" stroke-linejoin="round"><path d="M7.5 6.75 5.4 13.4a2.15.85 0 0 0 4.2 0Z"/><path d="M15.5 4.75 12.6 15.4a2.95 1.15 0 0 0 5.9 0Z"/><path d="M7.5 6.75c1-2.35 6-3.85 8-2"/></g>
<g transform="translate(487 68) scale(2)" fill="none" stroke="#16150F" stroke-width="1.5" stroke-linecap="round" stroke-linejoin="round"><path d="M7.5 6.75 5.4 13.4a2.15.85 0 0 0 4.2 0Z"/><path d="M15.5 4.75 12.6 15.4a2.95 1.15 0 0 0 5.9 0Z"/><path d="M7.5 6.75c1-2.35 6-3.85 8-2"/></g>
<line x1="28" y1="130" x2="548" y2="130" stroke="#E2DED3" stroke-opacity="0.6"/>
<text x="28" y="184" font-family="ui-monospace,SFMono-Regular,Menlo,monospace" font-size="10" fill="#16150F">film-clapper</text>
<g transform="translate(207 168) scale(0.6666666666666666)" fill="none" stroke="#16150F" stroke-width="1.5" stroke-linecap="round" stroke-linejoin="round"><rect width="18" height="9.25" x="3" y="10.25" rx="1.5"/><path d="m3.4 9.1 17-5.5.85 2.6-17 5.5Z"/><path d="m8.35 7.5.7 2.2m3.8-3.65.7 2.2m3.8-3.65.7 2.2"/></g>
<g transform="translate(279 164) scale(0.8333333333333334)" fill="none" stroke="#16150F" stroke-width="1.5" stroke-linecap="round" stroke-linejoin="round"><rect width="18" height="9.25" x="3" y="10.25" rx="1.5"/><path d="m3.4 9.1 17-5.5.85 2.6-17 5.5Z"/><path d="m8.35 7.5.7 2.2m3.8-3.65.7 2.2m3.8-3.65.7 2.2"/></g>
<g transform="translate(351 160) scale(1)" fill="none" stroke="#16150F" stroke-width="1.5" stroke-linecap="round" stroke-linejoin="round"><rect width="18" height="9.25" x="3" y="10.25" rx="1.5"/><path d="m3.4 9.1 17-5.5.85 2.6-17 5.5Z"/><path d="m8.35 7.5.7 2.2m3.8-3.65.7 2.2m3.8-3.65.7 2.2"/></g>
<g transform="translate(421 152) scale(1.3333333333333333)" fill="none" stroke="#16150F" stroke-width="1.5" stroke-linecap="round" stroke-linejoin="round"><rect width="18" height="9.25" x="3" y="10.25" rx="1.5"/><path d="m3.4 9.1 17-5.5.85 2.6-17 5.5Z"/><path d="m8.35 7.5.7 2.2m3.8-3.65.7 2.2m3.8-3.65.7 2.2"/></g>
<g transform="translate(487 136) scale(2)" fill="none" stroke="#16150F" stroke-width="1.5" stroke-linecap="round" stroke-linejoin="round"><rect width="18" height="9.25" x="3" y="10.25" rx="1.5"/><path d="m3.4 9.1 17-5.5.85 2.6-17 5.5Z"/><path d="m8.35 7.5.7 2.2m3.8-3.65.7 2.2m3.8-3.65.7 2.2"/></g>
<line x1="28" y1="198" x2="548" y2="198" stroke="#E2DED3" stroke-opacity="0.6"/>
<text x="28" y="252" font-family="ui-monospace,SFMono-Regular,Menlo,monospace" font-size="10" fill="#16150F">shekere</text>
<g transform="translate(207 236) scale(0.6666666666666666)" fill="none" stroke="#16150F" stroke-width="1.5" stroke-linecap="round" stroke-linejoin="round"><path d="M9.75 3.5h4.5m-4.5 0v3.6m4.5-3.6v3.6m-4.5-1.7h4.5"/><ellipse cx="12" cy="13.6" rx="6.6" ry="6.9"/><path d="M12 6.75v13.7M5.4 13.6h13.2"/><path d="m7.35 8.95 9.3 9.3m0-9.3-9.3 9.3"/></g>
<g transform="translate(279 232) scale(0.8333333333333334)" fill="none" stroke="#16150F" stroke-width="1.5" stroke-linecap="round" stroke-linejoin="round"><path d="M9.75 3.5h4.5m-4.5 0v3.6m4.5-3.6v3.6m-4.5-1.7h4.5"/><ellipse cx="12" cy="13.6" rx="6.6" ry="6.9"/><path d="M12 6.75v13.7M5.4 13.6h13.2"/><path d="m7.35 8.95 9.3 9.3m0-9.3-9.3 9.3"/></g>
<g transform="translate(351 228) scale(1)" fill="none" stroke="#16150F" stroke-width="1.5" stroke-linecap="round" stroke-linejoin="round"><path d="M9.75 3.5h4.5m-4.5 0v3.6m4.5-3.6v3.6m-4.5-1.7h4.5"/><ellipse cx="12" cy="13.6" rx="6.6" ry="6.9"/><path d="M12 6.75v13.7M5.4 13.6h13.2"/><path d="m7.35 8.95 9.3 9.3m0-9.3-9.3 9.3"/></g>
<g transform="translate(421 220) scale(1.3333333333333333)" fill="none" stroke="#16150F" stroke-width="1.5" stroke-linecap="round" stroke-linejoin="round"><path d="M9.75 3.5h4.5m-4.5 0v3.6m4.5-3.6v3.6m-4.5-1.7h4.5"/><ellipse cx="12" cy="13.6" rx="6.6" ry="6.9"/><path d="M12 6.75v13.7M5.4 13.6h13.2"/><path d="m7.35 8.95 9.3 9.3m0-9.3-9.3 9.3"/></g>
<g transform="translate(487 204) scale(2)" fill="none" stroke="#16150F" stroke-width="1.5" stroke-linecap="round" stroke-linejoin="round"><path d="M9.75 3.5h4.5m-4.5 0v3.6m4.5-3.6v3.6m-4.5-1.7h4.5"/><ellipse cx="12" cy="13.6" rx="6.6" ry="6.9"/><path d="M12 6.75v13.7M5.4 13.6h13.2"/><path d="m7.35 8.95 9.3 9.3m0-9.3-9.3 9.3"/></g>
<line x1="28" y1="266" x2="548" y2="266" stroke="#E2DED3" stroke-opacity="0.6"/>
<text x="28" y="320" font-family="ui-monospace,SFMono-Regular,Menlo,monospace" font-size="10" fill="#16150F">talking-drum</text>
<g transform="translate(207 304) scale(0.6666666666666666)" fill="none" stroke="#16150F" stroke-width="1.5" stroke-linecap="round" stroke-linejoin="round"><ellipse cx="12" cy="5.5" rx="5.5" ry="1.75"/><path d="M6.5 5.5c1.4 4 1.4 9 0 13m11-13c-1.4 4-1.4 9 0 13"/><path d="M6.5 18.5a5.5 1.75 0 0 0 11 0"/><path d="m9.3 7 1.3 10m4.1-10-1.3 10M12 7.25V17"/></g>
<g transform="translate(279 300) scale(0.8333333333333334)" fill="none" stroke="#16150F" stroke-width="1.5" stroke-linecap="round" stroke-linejoin="round"><ellipse cx="12" cy="5.5" rx="5.5" ry="1.75"/><path d="M6.5 5.5c1.4 4 1.4 9 0 13m11-13c-1.4 4-1.4 9 0 13"/><path d="M6.5 18.5a5.5 1.75 0 0 0 11 0"/><path d="m9.3 7 1.3 10m4.1-10-1.3 10M12 7.25V17"/></g>
<g transform="translate(351 296) scale(1)" fill="none" stroke="#16150F" stroke-width="1.5" stroke-linecap="round" stroke-linejoin="round"><ellipse cx="12" cy="5.5" rx="5.5" ry="1.75"/><path d="M6.5 5.5c1.4 4 1.4 9 0 13m11-13c-1.4 4-1.4 9 0 13"/><path d="M6.5 18.5a5.5 1.75 0 0 0 11 0"/><path d="m9.3 7 1.3 10m4.1-10-1.3 10M12 7.25V17"/></g>
<g transform="translate(421 288) scale(1.3333333333333333)" fill="none" stroke="#16150F" stroke-width="1.5" stroke-linecap="round" stroke-linejoin="round"><ellipse cx="12" cy="5.5" rx="5.5" ry="1.75"/><path d="M6.5 5.5c1.4 4 1.4 9 0 13m11-13c-1.4 4-1.4 9 0 13"/><path d="M6.5 18.5a5.5 1.75 0 0 0 11 0"/><path d="m9.3 7 1.3 10m4.1-10-1.3 10M12 7.25V17"/></g>
<g transform="translate(487 272) scale(2)" fill="none" stroke="#16150F" stroke-width="1.5" stroke-linecap="round" stroke-linejoin="round"><ellipse cx="12" cy="5.5" rx="5.5" ry="1.75"/><path d="M6.5 5.5c1.4 4 1.4 9 0 13m11-13c-1.4 4-1.4 9 0 13"/><path d="M6.5 18.5a5.5 1.75 0 0 0 11 0"/><path d="m9.3 7 1.3 10m4.1-10-1.3 10M12 7.25V17"/></g>
<line x1="28" y1="334" x2="548" y2="334" stroke="#E2DED3" stroke-opacity="0.6"/></svg>
